<?xml version="1.0" standalone="no"?>
<!DOCTYPE svg PUBLIC "-//W3C//DTD SVG 20010904//EN"
 "http://www.w3.org/TR/2001/REC-SVG-20010904/DTD/svg10.dtd">
<svg version="1.0" xmlns="http://www.w3.org/2000/svg"
 width="390.000000pt" height="390.000000pt" viewBox="0 0 390.000000 390.000000"
 preserveAspectRatio="xMidYMid meet">
<metadata>
Created by potrace 1.14, written by Peter Selinger 2001-2017
</metadata>
<g transform="translate(0.000000,390.000000) scale(0.100000,-0.100000)"
fill="#000000" stroke="none">
<path d="M752 2433 c-12 -43 -26 -99 -33 -125 l-11 -48 -94 0 -93 0 -10 -37
c-5 -21 -17 -66 -26 -100 -8 -34 -18 -69 -21 -78 -5 -13 7 -15 86 -15 91 0 92
0 86 -22 -3 -13 -9 -40 -12 -60 l-6 -37 -96 -3 -95 -3 -28 -105 c-15 -58 -28
-111 -28 -117 -1 -10 23 -13 89 -13 l90 0 -6 -27 c-4 -16 -19 -72 -34 -125
l-27 -98 122 0 123 0 20 78 c12 42 27 98 34 125 l12 47 82 0 82 0 -32 -125
-32 -125 123 0 c86 0 123 3 123 11 0 7 14 63 31 125 l31 114 98 0 97 0 28 108
c15 59 30 113 32 120 4 9 -18 12 -91 12 -106 0 -104 -2 -82 70 l13 45 98 5 98
5 29 105 c15 58 28 108 28 113 0 4 -43 7 -95 7 -52 0 -95 3 -95 8 0 4 14 57
30 117 17 61 30 113 30 118 0 4 -54 7 -120 7 l-119 0 -15 -52 c-8 -29 -23 -84
-33 -123 l-18 -70 -83 -3 c-45 -2 -82 -1 -82 1 0 2 13 56 30 118 16 63 30 117
30 122 0 4 -54 7 -119 7 l-119 0 -20 -77z m298 -410 c0 -5 -6 -30 -13 -58
l-13 -50 -82 -3 c-45 -2 -82 1 -82 5 0 8 17 77 25 101 5 13 165 18 165 5z"/>
<path d="M2097 2414 c-94 -22 -167 -64 -238 -134 -102 -102 -149 -216 -149
-366 0 -232 153 -431 375 -489 132 -34 299 -11 411 56 149 90 254 279 242 439
l-3 45 -282 3 -283 2 0 -100 0 -99 147 -3 147 -3 -35 -39 c-103 -118 -314
-115 -409 4 -46 59 -63 107 -63 185 0 114 54 208 148 258 58 30 184 30 241 0
43 -23 98 -79 116 -119 11 -23 14 -24 136 -24 l124 0 -6 28 c-26 110 -134 251
-236 306 -108 59 -263 79 -383 50z"/>
<path d="M2880 1915 l0 -495 120 0 120 0 0 190 0 190 205 0 205 0 0 115 0 115
-205 0 -205 0 0 75 0 75 220 0 220 0 0 115 0 115 -340 0 -340 0 0 -495z"/>
</g>
</svg>
