<?xml version="1.0" encoding="UTF-8"?>
<svg width="413px" height="154px" viewBox="0 0 413 154" version="1.1" xmlns="http://www.w3.org/2000/svg" xmlns:xlink="http://www.w3.org/1999/xlink">
    <!-- Generator: Sketch 54.1 (76490) - https://sketchapp.com -->
    <title>Slice 1</title>
    <desc>Created with Sketch.</desc>
    <g id="Page-1" stroke="none" stroke-width="1" fill="#000" fill-rule="evenodd">
        <g id="AVSlogo_pos_neg" fill="#000" transform="translate(2.000000, 2.000000)">
            <path d="M407.235,28.77 C403.273,27.583 399.184,27.017 395.346,27.085 C387.089,27.218 382.603,30.612 383.105,35.824 C384.081,46.034 409.974,54.405 410.053,77.142 C410.116,94.986 398.71,114.917 365.689,115.503 C346.111,115.658 318.797,110.143 318.797,110.143 L331.602,82.4 C346.555,86.529 356.934,89.821 368.105,89.68 C376.021,89.577 380.106,86.017 380.085,80.498 C380.042,68.171 356.744,63.611 354.428,39.432 C352.532,19.634 365.088,4.194 394.07,3.723 C399.827,3.634 405.432,3.957 410.315,4.717 L407.235,28.77 Z" id="Path" fill="#000"></path>
            <path d="M223.374,31.978 C224.19,33.174 223.545,37.815 223.545,37.815 C222.102,58.366 208.218,87.826 196.492,86.954 C192.305,86.642 190.002,82.773 189.075,74.442 C186.822,54.263 202.97,32.753 213.168,30.205 C218.702,28.822 221.814,29.685 223.374,31.978 Z M247.864,7.323 C247.864,7.323 234.607,3.073 215.184,5.669 C188.794,9.19 155.439,43.768 162,82.275 C165.969,105.557 177.295,116.525 193.88,116.504 C211.726,116.478 224.48,101.5 230.56,85.874 L230.801,85.874 C229.681,96.961 231.052,114.428 231.052,114.428 L262.788,114.428 C256.68,65.438 252.623,47.278 247.864,7.323 Z" id="Shape" fill="#000"></path>
            <path d="M322.127,5.243 L296.72,73.923 L296.312,73.945 C296.279,73.3 296.133,72.644 295.909,71.981 C293.766,59.856 289.283,11.635 288.962,8.176 L288.978,8.125 L288.957,8.125 C288.95,8.028 288.944,7.972 288.944,7.972 L258.177,7.972 L258.229,8.125 L257.667,8.125 L274.314,113.375 L305.426,113.375 L353.594,11.415 L322.127,5.243 Z" id="Path" fill="#000"></path>
            <path d="M134.205,57.614 C109.779,15.304 81.518,0.858 81.518,0.858 L80.658,0.482 L79.803,0.858 C79.803,0.858 51.544,15.304 27.117,57.614 C2.692,99.921 0.981,132.894 0.981,132.894 C0.981,132.894 30.949,148.733 79.802,148.733 C80.004,148.733 80.2,148.733 80.4,148.733 C80.487,148.733 80.573,148.733 80.657,148.733 C80.746,148.733 80.831,148.733 80.923,148.733 C81.121,148.733 81.316,148.733 81.517,148.733 C130.37,148.733 160.621,132.894 160.621,132.894 C160.621,132.894 158.631,99.921 134.205,57.614 Z M80.657,121.065 C60.411,121.065 45.119,117.587 35.069,114.231 C37.195,103.891 41.827,88.955 51.934,71.442 C62.063,53.901 72.732,41.856 80.657,34.827 C88.589,41.856 99.259,53.902 109.384,71.442 C119.494,88.955 124.125,103.891 126.254,114.231 C116.199,117.587 100.909,121.065 80.657,121.065 Z" id="Shape" stroke="#000" stroke-width="4.5472" fill="#000"></path>
            <path d="M182.043,132.097 C182.043,134.421 180.63,136.891 178.078,136.891 C176.479,136.891 175.774,135.957 175.774,134.525 C175.774,131.535 177.6,129.647 179.697,129.647 C181.296,129.647 182.043,130.644 182.043,132.097 Z M184.367,131.89 C184.367,129.337 182.936,127.697 180.049,127.697 C176.232,127.697 173.471,130.913 173.471,134.795 C173.471,137.327 174.903,138.863 177.808,138.863 C181.461,138.863 184.367,135.792 184.367,131.89 Z" id="Shape" fill="#000000"></path>
            <path d="M195.741,132.097 C195.741,134.421 194.33,136.891 191.777,136.891 C190.178,136.891 189.472,135.957 189.472,134.525 C189.472,131.535 191.299,129.647 193.396,129.647 C194.994,129.647 195.741,130.644 195.741,132.097 Z M198.066,131.89 C198.066,129.337 196.633,127.697 193.749,127.697 C189.929,127.697 187.169,130.913 187.169,134.795 C187.169,137.327 188.601,138.863 191.506,138.863 C195.16,138.863 198.066,135.792 198.066,131.89 Z" id="Shape" fill="#000000"></path>
            <path d="M207.696,129.772 C207.136,129.605 206.576,129.481 205.954,129.481 C204.75,129.481 203.981,130.021 203.981,130.996 C203.981,132.533 207.406,132.428 207.406,135.002 C207.406,137.201 205.455,138.882 202.716,138.882 C201.74,138.882 201.055,138.779 200.475,138.612 L200.911,136.598 C201.429,136.827 202.156,137.014 202.903,137.014 C204.232,137.014 204.959,136.267 204.959,135.395 C204.959,133.714 201.596,134.026 201.596,131.431 C201.596,129.437 203.195,127.695 205.996,127.695 C206.929,127.695 207.511,127.779 208.092,127.882 L207.696,129.772 Z" id="Path" fill="#000000"></path>
            <polygon id="Path" fill="#000000" points="218.88 129.793 215.953 129.793 214.252 138.676 212.052 138.676 213.753 129.793 210.826 129.793 211.179 127.883 219.233 127.883"></polygon>
            <polygon id="Path" fill="#000000" points="220.746 134.339 220.746 132.554 225.728 132.554 225.728 134.339"></polygon>
            <path d="M233.885,138.677 L231.353,138.677 L229.381,127.884 L231.685,127.884 L232.681,133.447 C232.868,134.38 232.972,135.336 233.055,136.27 L233.076,136.27 C233.491,135.294 233.989,134.318 234.446,133.488 L237.58,127.884 L240.01,127.884 L233.885,138.677 Z" id="Path" fill="#000000"></path>
            <polygon id="Path" fill="#000000" points="246.979 138.677 241.209 138.677 243.264 127.884 245.445 127.884 243.763 136.726 247.353 136.726"></polygon>
            <path d="M256.922,134.961 L253.601,134.961 L255.303,131.951 C255.615,131.39 255.884,130.851 256.154,130.269 L256.175,130.269 C256.216,130.81 256.278,131.37 256.381,131.931 L256.922,134.961 Z M259.869,138.677 L257.939,127.884 L255.343,127.884 L249.283,138.677 L251.565,138.677 L252.727,136.58 L257.148,136.58 L257.502,138.677 L259.869,138.677 Z" id="Shape" fill="#000000"></path>
            <path d="M269.749,134.961 L266.428,134.961 L268.129,131.951 C268.442,131.39 268.711,130.851 268.98,130.269 L269.002,130.269 C269.043,130.81 269.105,131.37 269.208,131.931 L269.749,134.961 Z M272.695,138.677 L270.764,127.884 L268.17,127.884 L262.109,138.677 L264.392,138.677 L265.554,136.58 L269.975,136.58 L270.328,138.677 L272.695,138.677 Z" id="Shape" fill="#000000"></path>
            <path d="M289.527,138.677 L287.223,138.677 L287.494,133.114 C287.556,132.076 287.618,131.224 287.681,130.624 L287.66,130.624 C287.411,131.247 287.099,131.952 286.748,132.636 L283.593,138.677 L281.288,138.677 L280.541,133.073 C280.458,132.305 280.354,131.391 280.354,130.644 L280.333,130.644 C280.125,131.496 279.877,132.305 279.586,133.218 L277.862,138.676 L275.621,138.676 L279.296,127.883 L282.034,127.883 L282.845,133.903 C282.949,134.566 283.032,135.273 283.032,135.915 L283.053,135.915 C283.324,135.211 283.593,134.65 283.946,133.944 L287.142,127.883 L289.986,127.883 L289.527,138.677 Z" id="Path" fill="#000000"></path>
            <path d="M300.732,129.772 C300.171,129.605 299.611,129.481 298.989,129.481 C297.785,129.481 297.017,130.021 297.017,130.996 C297.017,132.533 300.442,132.428 300.442,135.002 C300.442,137.201 298.49,138.882 295.751,138.882 C294.775,138.882 294.09,138.779 293.509,138.612 L293.946,136.598 C294.465,136.827 295.191,137.014 295.938,137.014 C297.266,137.014 297.994,136.267 297.994,135.395 C297.994,133.714 294.632,134.026 294.632,131.431 C294.632,129.437 296.23,127.695 299.031,127.695 C299.966,127.695 300.546,127.779 301.128,127.882 L300.732,129.772 Z" id="Path" fill="#000000"></path>
            <polygon id="Path" fill="#000000" points="311.982 129.647 307.976 129.647 307.457 132.284 311.274 132.284 310.963 133.986 307.123 133.986 306.584 136.891 310.59 136.891 310.257 138.676 304.052 138.676 306.107 127.883 312.313 127.883"></polygon>
            <polygon id="Path" fill="#000000" points="328.752 129.793 325.824 129.793 324.123 138.676 321.923 138.676 323.624 129.793 320.698 129.793 321.051 127.883 329.104 127.883"></polygon>
            <polygon id="Path" fill="#000000" points="338.632 129.647 334.625 129.647 334.106 132.284 337.925 132.284 337.613 133.986 333.772 133.986 333.233 136.891 337.239 136.891 336.907 138.676 330.701 138.676 332.756 127.883 338.962 127.883"></polygon>
            <polygon id="Path" fill="#000000" points="347.306 138.677 341.536 138.677 343.59 127.884 345.77 127.884 344.089 136.726 347.68 136.726"></polygon>
            <polygon id="Path" fill="#000000" points="358.929 129.647 354.922 129.647 354.403 132.284 358.222 132.284 357.91 133.986 354.071 133.986 353.531 136.891 357.537 136.891 357.205 138.676 351 138.676 353.056 127.883 359.261 127.883"></polygon>
            <path d="M366.605,138.677 L364.074,138.677 L362.101,127.884 L364.406,127.884 L365.401,133.447 C365.589,134.38 365.691,135.336 365.775,136.27 L365.796,136.27 C366.211,135.294 366.708,134.318 367.165,133.488 L370.299,127.884 L372.729,127.884 L366.605,138.677 Z" id="Path" fill="#000000"></path>
            <polygon id="Path" fill="#000000" points="376.11 138.677 373.929 138.677 375.985 127.884 378.165 127.884"></polygon>
            <path d="M387.878,129.772 C387.317,129.605 386.757,129.481 386.135,129.481 C384.931,129.481 384.163,130.021 384.163,130.996 C384.163,132.533 387.588,132.428 387.588,135.002 C387.588,137.201 385.637,138.882 382.897,138.882 C381.922,138.882 381.236,138.779 380.656,138.612 L381.092,136.598 C381.611,136.827 382.338,137.014 383.085,137.014 C384.413,137.014 385.14,136.267 385.14,135.395 C385.14,133.714 381.778,134.026 381.778,131.431 C381.778,129.437 383.376,127.695 386.177,127.695 C387.112,127.695 387.693,127.779 388.274,127.882 L387.878,129.772 Z" id="Path" fill="#000000"></path>
            <polygon id="Path" fill="#000000" points="393.379 138.677 391.199 138.677 393.254 127.884 395.434 127.884"></polygon>
            <polygon id="Path" fill="#000000" points="406.431 129.647 402.426 129.647 401.907 132.284 405.724 132.284 405.413 133.986 401.573 133.986 401.034 136.891 405.04 136.891 404.708 138.676 398.502 138.676 400.557 127.883 406.763 127.883"></polygon>
        </g>
    </g>
</svg>
