<svg width="152" height="55" viewBox="0 0 152 55" fill="none" xmlns="http://www.w3.org/2000/svg">
<path d="M26.1612 11.9618C26.2265 12.2061 26.2765 12.7449 26.2743 13.0832C26.2088 20.3837 20.5829 25.9052 13.2887 25.9062C5.95571 25.9052 0.299805 20.3188 0.299805 12.9529C0.29981 5.57324 5.94256 0 13.2926 0C19.5162 0 24.4997 4.02913 25.7982 9.8277L20.4446 9.82876C19.3889 6.84187 16.6832 4.87031 13.2808 4.87031C8.8026 4.87031 5.46036 8.28254 5.45773 12.9528C5.45904 17.6258 8.8076 21.0354 13.2887 21.0327C16.729 21.0349 19.4465 19.1314 20.5416 16.1635H11.9546V11.9623L26.1612 11.9618H26.1612Z" fill="#010101"/>
<path d="M35.3611 5.31774V10.3379H46.212V15.2103H35.3611V20.5883H47.0257V25.4608H30.2606V0.445312H47.0257V5.31774H35.3611Z" fill="#010101"/>
<path d="M67.4683 10.9216V0.445883H72.5691V25.4613L66.7044 25.4603L56.0444 8.34636L56.4127 14.9851V25.4603H51.3119V0.444824H57.1804L67.8355 17.5498L67.4683 10.9216Z" fill="#010101"/>
<path d="M88.2079 5.31774V25.4608H83.1073V5.31774H76.0469V0.445312H95.2888V5.31774H88.2079H88.2079Z" fill="#010101"/>
<path d="M104.074 5.31932V10.2187H116.452V25.4608H98.9736V20.5873H111.351V15.0911H98.9736V0.445312H116.452V5.31932H104.074Z" fill="#010101"/>
<path d="M126.882 5.31774V10.3379H137.733V15.2103H126.882V20.5883H138.546V25.4608H121.781V0.445312H138.546V5.31774H126.882Z" fill="#010101"/>
<path d="M6.46922 34.371V39.6154H17.3201V44.4879H6.46922V54.514H1.36865V29.4985H18.1335V34.371H6.46922Z" fill="#010101"/>
<path d="M27.666 34.371V39.3911H38.5169V44.2636H27.666V49.6416H39.3306V54.514H22.5654V29.4985H39.3306V34.371H27.666Z" fill="#010101"/>
<path d="M48.8627 34.371V39.3911H59.7136V44.2636H48.8627V49.6416H60.5273V54.514H43.7621V29.4985H60.5273V34.371H48.8627Z" fill="#010101"/>
<path d="M70.0876 34.3725V39.2719H82.4651V54.514H64.9871V49.6405H77.3645V44.1443H64.9871V29.4985H82.4651V34.3725H70.0876Z" fill="#010101"/>
<path d="M98.2538 34.371V54.514H93.1532V34.371H86.0928V29.4985H105.335V34.371H98.2537H98.2538Z" fill="#010101"/>
<path d="M114.092 34.371V39.3911H124.943V44.2636H114.092V49.6416H125.756V54.514H108.991V29.4985H125.756V34.371H114.092Z" fill="#010101"/>
<path d="M146.199 39.9748V29.4991H151.3V54.5145L145.435 54.5135L134.775 37.3996L135.143 44.0383V54.5135H130.043V29.498H135.911L146.566 46.603L146.199 39.9748Z" fill="#010101"/>
</svg>
