<?xml version="1.0" encoding="utf-8"?>
<!-- Generator: Adobe Illustrator 26.5.0, SVG Export Plug-In . SVG Version: 6.00 Build 0)  -->
<svg version="1.1" id="Laag_1" xmlns="http://www.w3.org/2000/svg" xmlns:xlink="http://www.w3.org/1999/xlink" x="0px" y="0px"
	 viewBox="0 0 32 32" style="enable-background:new 0 0 32 32;" xml:space="preserve">
<style type="text/css">
	.st0{fill:#FFFFFF;}
</style>
<path class="st0" d="M16,0C7.2,0,0,7.2,0,16s7.2,16,16,16s16-7.2,16-16S24.8,0,16,0z M16,29.1C8.8,29.1,2.9,23.2,2.9,16
	S8.8,2.9,16,2.9S29.1,8.8,29.1,16C29.1,23.2,23.2,29.1,16,29.1z M20.7,18c0,0-1.8,2.3-4.7,2.3c-2.8,0-4.6-2.3-4.7-2.3
	c-0.5-0.6-1.4-0.8-2-0.3s-0.8,1.4-0.3,2c0.1,0.1,2.7,3.5,7,3.5s6.9-3.3,7-3.5c0.5-0.6,0.4-1.5-0.3-2C22.1,17.3,21.1,17.4,20.7,18
	L20.7,18z M11.7,13.1c0.8,0,1.5-0.7,1.5-1.5s-0.7-1.5-1.5-1.5h0c-0.8,0-1.4,0.7-1.4,1.5S10.8,13.1,11.7,13.1L11.7,13.1z M20.4,13.1
	c0.8,0,1.5-0.7,1.5-1.5s-0.7-1.5-1.5-1.5h0c-0.8,0-1.4,0.7-1.4,1.5S19.6,13.1,20.4,13.1z"/>
</svg>
