<?xml version="1.0" encoding="utf-8"?>
<!-- Generator: Adobe Illustrator 26.5.0, SVG Export Plug-In . SVG Version: 6.00 Build 0)  -->
<svg version="1.1" id="Laag_1" xmlns="http://www.w3.org/2000/svg" xmlns:xlink="http://www.w3.org/1999/xlink" x="0px" y="0px"
	 viewBox="0 0 32 32" style="enable-background:new 0 0 32 32;" xml:space="preserve">
<path d="M10.7,32c-2.6,0-5.1-1-7-2.9s-2.9-4.4-2.9-7s1-5.1,2.9-7l13-13c1.3-1.3,3.1-2.1,5-2.1s3.7,0.7,5,2.1c1.3,1.3,2.1,3.1,2.1,5
	s-0.7,3.7-2.1,5l-13,13c-1.6,1.6-4.4,1.6-6,0c-0.8-0.8-1.2-1.9-1.2-3c0-1.1,0.4-2.2,1.2-3l12-12c0.6-0.6,1.5-0.6,2,0
	c0.6,0.6,0.6,1.4,0,2l-12,12c-0.3,0.3-0.4,0.6-0.4,1c0,0.4,0.2,0.7,0.4,1c0.5,0.5,1.5,0.5,2,0l13-13c0.8-0.8,1.2-1.9,1.2-3
	s-0.4-2.2-1.2-3c-1.6-1.6-4.4-1.6-6,0l-13,13c-1.3,1.3-2.1,3.1-2.1,5s0.7,3.7,2.1,5c1.3,1.3,3.1,2.1,5,2.1s3.7-0.7,5-2.1l13-13
	c0.6-0.6,1.4-0.6,2,0s0.6,1.4,0,2l-13,13C15.9,31,13.4,32,10.7,32L10.7,32z"/>
</svg>
