<?xml version="1.0" encoding="utf-8"?>
<!-- Generator: Adobe Illustrator 26.5.0, SVG Export Plug-In . SVG Version: 6.00 Build 0)  -->
<svg version="1.1" id="Laag_1" xmlns="http://www.w3.org/2000/svg" xmlns:xlink="http://www.w3.org/1999/xlink" x="0px" y="0px"
	 viewBox="0 0 21 32" style="enable-background:new 0 0 21 32;" xml:space="preserve">
<style type="text/css">
	.st0{fill:#FFFFFF;}
</style>
<path class="st0" d="M21.3,16c0-3-1.3-5.8-3.3-7.7l-0.4-4.6c-0.1-1-0.5-1.9-1.3-2.6s-1.7-1-2.7-1H7.8c-1,0-2,0.4-2.7,1
	S3.9,2.6,3.8,3.6L3.4,8.2C1.3,10.2,0,12.9,0,16c0,3.1,1.3,5.8,3.4,7.7l0.4,4.6c0.1,1,0.5,1.9,1.3,2.6c0.7,0.7,1.7,1,2.7,1
	c0,0,0,0,0,0h5.8c1,0,2-0.4,2.7-1c0.7-0.7,1.2-1.6,1.3-2.6l0.4-4.6C20,21.8,21.3,19.1,21.3,16L21.3,16z M6.4,3.9
	c0-0.3,0.2-0.6,0.4-0.9c0.2-0.2,0.6-0.3,0.9-0.3h5.8c0.3,0,0.7,0.1,0.9,0.3c0.2,0.2,0.4,0.5,0.4,0.9l0.2,2.4c-1.4-0.6-2.9-1-4.5-1
	c-1.6,0-3.1,0.4-4.4,1L6.4,3.9L6.4,3.9z M2.7,16c0-4.4,3.6-8,8-8s8,3.6,8,8c0,2.3-1,4.3-2.5,5.8h-11C3.6,20.3,2.7,18.3,2.7,16z
	 M14.9,28.1c0,0.3-0.2,0.6-0.4,0.9c-0.2,0.2-0.6,0.3-0.9,0.3c0,0,0,0,0,0H7.8c-0.3,0-0.7-0.1-0.9-0.3c-0.2-0.2-0.4-0.5-0.4-0.9
	l-0.2-2.4c1.4,0.6,2.9,1,4.5,1c1.6,0,3.1-0.4,4.4-1L14.9,28.1L14.9,28.1z M11.7,18.9c0.3,0.3,0.6,0.4,0.9,0.4s0.7-0.1,0.9-0.4
	c0.5-0.5,0.5-1.4,0-1.9L12,15.4V12c0-0.7-0.6-1.3-1.3-1.3S9.3,11.3,9.3,12v4c0,0.4,0.1,0.7,0.4,0.9L11.7,18.9L11.7,18.9z"/>
</svg>
