<svg width="177" height="98" viewBox="0 0 177 98" fill="none" xmlns="http://www.w3.org/2000/svg">
  <g clip-path="url(#clip0_664_25)">
    <path d="M4.56432 82.8004L1.02832 84.1764V85.9524L3.57232 84.9124V94.0004H5.38032V82.8004H4.56432Z" fill="black"/>
    <path d="M12.1126 86.5444C11.1526 86.5444 10.4486 86.8164 9.88857 87.2484L10.4646 84.5284H15.3606V82.8004H9.10457L7.72857 89.2324H9.45657C9.87257 88.5604 10.6086 88.0484 11.7286 88.0484C13.0726 88.0484 14.0486 88.8964 14.0486 90.2244C14.0486 91.5044 13.1046 92.4804 11.6966 92.4804C10.4646 92.4804 9.42457 91.8404 9.16857 90.5604H7.34457C7.60057 92.9924 9.56857 94.1924 11.7126 94.1924C14.0806 94.1924 15.8886 92.6244 15.8886 90.2404C15.8886 87.9204 14.1606 86.5444 12.1126 86.5444Z" fill="black"/>
    <path d="M27.9212 88.3524H22.6412V90.0804H27.9212V88.3524Z" fill="black"/>
    <path d="M37.6327 92.2724L37.6647 92.2564L39.4247 90.7364C41.7127 88.7364 42.8967 87.7284 42.8967 86.0324C42.8967 84.1444 41.4087 82.6084 39.0247 82.6084C36.7047 82.6084 35.0247 84.0644 34.7687 86.4004H36.5927C36.8327 85.1204 37.5847 84.3364 38.9447 84.3364C40.3207 84.3364 41.0727 85.1364 41.0727 86.1124C41.0727 87.1044 40.4327 87.6644 37.9207 89.8564L34.6727 92.7044V94.0004H43.1687V92.2724H37.6327Z" fill="black"/>
    <path d="M53.5252 89.7284H51.9092V82.8004H49.2212L44.3252 89.7284V91.4404L50.1012 91.4244V94.0004H51.9092V91.4244H53.5252V89.7284ZM46.2932 89.7284L49.9572 84.4804H50.1012V89.7284H46.2932Z" fill="black"/>
    <path d="M60.7499 81.2324C60.0939 81.2324 59.5819 81.6964 59.5819 82.3364C59.5819 82.9924 60.0939 83.4724 60.7499 83.4724C61.4379 83.4724 61.9339 82.9924 61.9339 82.3364C61.9339 81.6964 61.4379 81.2324 60.7499 81.2324ZM59.8539 98.0004H61.6619V85.2004H59.8539V98.0004Z" fill="black"/>
    <path d="M69.7282 85.2004V89.7604C69.7282 91.4564 68.8802 92.4644 67.3762 92.4644C66.0642 92.4644 65.4882 91.7444 65.4882 90.3844V85.2004H63.6802V90.7524C63.6802 92.8964 64.8482 94.1924 66.8002 94.1924C68.1602 94.1924 69.1042 93.5524 69.7282 92.5444V94.0004H71.5362V85.2004H69.7282Z" fill="black"/>
    <path d="M73.6356 94.0004H75.4596V81.6804H73.6356V94.0004Z" fill="black"/>
    <path d="M78.4218 81.2324C77.7658 81.2324 77.2538 81.6964 77.2538 82.3364C77.2538 82.9924 77.7658 83.4724 78.4218 83.4724C79.1098 83.4724 79.6058 82.9924 79.6058 82.3364C79.6058 81.6964 79.1098 81.2324 78.4218 81.2324ZM77.5258 94.0004H79.3338V85.2004H77.5258V94.0004Z" fill="black"/>
    <path d="M88.7889 92.2724L88.8209 92.2564L90.5809 90.7364C92.8689 88.7364 94.0529 87.7284 94.0529 86.0324C94.0529 84.1444 92.5649 82.6084 90.1809 82.6084C87.8609 82.6084 86.1809 84.0644 85.9249 86.4004H87.7489C87.9889 85.1204 88.7409 84.3364 90.1009 84.3364C91.4769 84.3364 92.2289 85.1364 92.2289 86.1124C92.2289 87.1044 91.5889 87.6644 89.0769 89.8564L85.8289 92.7044V94.0004H94.3249V92.2724H88.7889Z" fill="black"/>
    <path d="M100.317 82.6084C97.4052 82.6084 95.6612 84.7684 95.6612 88.4004C95.6612 92.0324 97.4052 94.1924 100.317 94.1924C103.261 94.1924 104.989 92.0004 104.989 88.4004C104.989 84.8004 103.261 82.6084 100.317 82.6084ZM100.317 92.4644C98.5412 92.4644 97.4852 91.2164 97.4852 88.4004C97.4852 85.5844 98.5412 84.3364 100.317 84.3364C102.109 84.3364 103.165 85.5844 103.165 88.4004C103.165 91.2164 102.109 92.4644 100.317 92.4644Z" fill="black"/>
    <path d="M109.242 92.2724L109.274 92.2564L111.034 90.7364C113.322 88.7364 114.506 87.7284 114.506 86.0324C114.506 84.1444 113.018 82.6084 110.634 82.6084C108.314 82.6084 106.634 84.0644 106.378 86.4004H108.202C108.442 85.1204 109.194 84.3364 110.554 84.3364C111.93 84.3364 112.682 85.1364 112.682 86.1124C112.682 87.1044 112.042 87.6644 109.53 89.8564L106.282 92.7044V94.0004H114.778V92.2724H109.242Z" fill="black"/>
    <path d="M119.055 92.2724L119.087 92.2564L120.847 90.7364C123.135 88.7364 124.319 87.7284 124.319 86.0324C124.319 84.1444 122.831 82.6084 120.447 82.6084C118.127 82.6084 116.447 84.0644 116.191 86.4004H118.015C118.255 85.1204 119.007 84.3364 120.367 84.3364C121.743 84.3364 122.495 85.1364 122.495 86.1124C122.495 87.1044 121.855 87.6644 119.343 89.8564L116.095 92.7044V94.0004H124.591V92.2724H119.055Z" fill="black"/>
    <path d="M30.6489 13.9598C30.725 14.2449 30.7833 14.8737 30.7809 15.2685C30.7044 23.7884 24.1388 30.2322 15.6262 30.2334C7.06839 30.2322 0.467773 23.7126 0.467773 15.1164C0.46778 6.50414 7.05305 0 15.6308 0C22.8939 0 28.7098 4.70212 30.2252 11.4692L23.9773 11.4705C22.7453 7.98468 19.5878 5.68381 15.617 5.68381C10.3908 5.68381 6.4903 9.66598 6.48723 15.1164C6.48876 20.5699 10.3966 24.549 15.6262 24.5459C19.6412 24.5483 22.8126 22.3269 24.0906 18.8633H14.0693V13.9604L30.6489 13.9598H30.6489Z" fill="black"/>
    <path d="M41.3851 6.2058V12.0645H54.0485V17.7508H41.3851V24.0271H54.9981V29.7133H35.4326V0.519531H54.9981V6.2058H41.3851Z" fill="black"/>
    <path d="M78.856 12.7463V0.520767H84.8089V29.7146L77.9645 29.7133L65.524 9.74087L65.9538 17.4884V29.7134H60.001V0.519531H66.8497L79.2846 20.4815L78.856 12.7463Z" fill="black"/>
    <path d="M103.06 6.2058V29.7133H97.1079V6.2058H88.8682V0.519531H111.324V6.2058H103.06H103.06Z" fill="black"/>
    <path d="M121.575 6.20765V11.9253H136.02V29.7133H115.622V24.0258H130.067V17.6116H115.622V0.519531H136.02V6.20765H121.575Z" fill="black"/>
    <path d="M148.192 6.2058V12.0645H160.855V17.7508H148.192V24.0271H161.804V29.7133H142.239V0.519531H161.804V6.2058H148.192Z" fill="black"/>
    <path d="M7.66835 40.1121V46.2325H20.3317V51.9188H7.66835V63.6196H1.71582V34.4258H21.281V40.1121H7.66835Z" fill="black"/>
    <path d="M32.4047 40.1121V45.9708H45.068V51.657H32.4047V57.9333H46.0176V63.6196H26.4521V34.4258H46.0176V40.1121H32.4047Z" fill="black"/>
    <path d="M57.141 40.1121V45.9708H69.8044V51.657H57.141V57.9333H70.7539V63.6196H51.1885V34.4258H70.7539V40.1121H57.141Z" fill="black"/>
    <path d="M81.9125 40.1139V45.8316H96.3574V63.6196H75.96V57.9321H90.4049V51.5179H75.96V34.4258H96.3574V40.1139H81.9125Z" fill="black"/>
    <path d="M114.783 40.1121V63.6196H108.831V40.1121H100.591V34.4258H123.047V40.1121H114.783H114.783Z" fill="black"/>
    <path d="M133.266 40.1121V45.9708H145.929V51.657H133.266V57.9333H146.879V63.6196H127.313V34.4258H146.879V40.1121H133.266Z" fill="black"/>
    <path d="M170.737 46.6525V34.427H176.69V63.6208L169.845 63.6196L157.405 43.6471L157.835 51.3947V63.6196H151.882V34.4258H158.731L171.165 54.3878L170.737 46.6525Z" fill="black"/>
  </g>
  <defs>
    <clipPath id="clip0_664_25">
      <rect width="176" height="98" fill="black" transform="translate(0.391602)"/>
    </clipPath>
  </defs>
</svg>
