<?xml version="1.0" encoding="utf-8"?>
<!-- Generator: Adobe Illustrator 26.2.1, SVG Export Plug-In . SVG Version: 6.00 Build 0)  -->
<svg version="1.1" id="Laag_1" xmlns="http://www.w3.org/2000/svg" xmlns:xlink="http://www.w3.org/1999/xlink" x="0px" y="0px"
	 viewBox="0 0 177 99" style="enable-background:new 0 0 177 99;" xml:space="preserve" fill="#fff">
<g>
	<polygon points="0.79999,84.20001 0.79999,86 3.29999,85 3.29999,94 5.09998,94 5.09998,82.79999 4.29999,82.79999 	"/>
	<path d="M11.90002,86.59998c-1,0-1.70001,0.30005-2.20001,0.70001l0.59998-2.70001h4.90002v-1.69995H8.90002L7.5,89.29999h1.70001
		c0.39996-0.70001,1.20001-1.20001,2.29999-1.20001c1.29999,0,2.29999,0.80005,2.29999,2.20001
		c0,1.29999-0.89996,2.29999-2.39996,2.29999c-1.20001,0-2.30005-0.59998-2.5-1.89996H7.09998
		c0.30005,2.39996,2.20001,3.59998,4.40002,3.59998c2.40002,0,4.20001-1.59998,4.20001-4
		C15.70001,87.90002,13.90002,86.59998,11.90002,86.59998z"/>
	<rect x="22.40002" y="88.40002" width="5.29999" height="1.69995"/>
	<path d="M39.20001,90.79999c2.29999-2,3.5-3,3.5-4.70001c0-1.89996-1.5-3.39996-3.90002-3.39996c-2.29999,0-4,1.5-4.29999,3.79999
		h1.79999c0.20001-1.29999,1-2.09998,2.40002-2.09998c1.39996,0,2.09998,0.79999,2.09998,1.79999s-0.59998,1.59998-3.20001,3.70001
		l-3.19995,2.79999V94h8.5v-1.70001h-5.5L39.20001,90.79999z"/>
	<path d="M51.70001,82.79999H49l-4.90002,6.90002v1.69995h5.80005V94h1.79999v-2.59998h1.59998v-1.70001h-1.59998V82.79999z
		 M49.90002,89.70001h-3.80005L49.79999,84.5h0.10004V89.70001z"/>
	<rect x="59.59998" y="85.20001" width="1.80005" height="12.79999"/>
	<ellipse cx="60.5" cy="82.29999" rx="1.20001" ry="1.09998"/>
	<path d="M69.5,89.79999C69.5,91.5,68.70001,92.5,67.09998,92.5c-1.29999,0-1.89996-0.70001-1.89996-2.10004v-5.19995h-1.79999
		v5.59998c0,2.09998,1.19995,3.40002,3.09998,3.40002c1.40002,0,2.29999-0.60004,2.90002-1.60004V94h1.79999v-8.79999H69.5V89.79999
		z"/>
	<rect x="73.40002" y="81.70001" width="1.79999" height="12.29999"/>
	<ellipse cx="78.20001" cy="82.29999" rx="1.20001" ry="1.09998"/>
	<rect x="77.29999" y="85.20001" width="1.80005" height="8.79999"/>
	<path d="M90.40002,90.79999c2.29999-2,3.5-3,3.5-4.70001c0-1.89996-1.5-3.39996-3.90002-3.39996c-2.29999,0-4,1.5-4.29999,3.79999
		H87.5c0.20001-1.29999,1-2.09998,2.40002-2.09998c1.39996,0,2.09998,0.79999,2.09998,1.79999s-0.59998,1.59998-3.20001,3.70001
		l-3.19995,2.79999V94h8.5v-1.70001h-5.50006L90.40002,90.79999z"/>
	<path d="M100.09998,82.59998c-2.89996,0-4.69995,2.20001-4.69995,5.80005c0,3.59998,1.69995,5.79999,4.69995,5.79999
		c2.90002,0,4.70001-2.20001,4.70001-5.79999C104.79999,84.79999,103,82.59998,100.09998,82.59998z M100.09998,92.5
		c-1.79999,0-2.79999-1.20001-2.79999-4.09998c0-2.90002,1.10004-4.10004,2.79999-4.10004
		c1.80005,0,2.80005,1.20001,2.80005,4.10004C102.90002,91.29999,101.90002,92.5,100.09998,92.5z"/>
	<path d="M110.79999,90.79999c2.30005-2,3.5-3,3.5-4.70001c0-1.89996-1.5-3.39996-3.89996-3.39996c-2.30005,0-4,1.5-4.30005,3.79999
		h1.80005c0.19995-1.29999,1-2.09998,2.39996-2.09998c1.40002,0,2.10004,0.79999,2.10004,1.79999s-0.60004,1.59998-3.20001,3.70001
		L106,92.70001V94h8.5v-1.70001H109L110.79999,90.79999z"/>
	<path d="M120.60004,90.79999c2.29999-2,3.5-3,3.5-4.70001c0-1.89996-1.5-3.39996-3.90002-3.39996c-2.29999,0-4,1.5-4.29999,3.79999
		h1.79999c0.20001-1.29999,1-2.09998,2.40002-2.09998c1.39996,0,2.09998,0.79999,2.09998,1.79999S121.60004,87.79999,119,89.90002
		l-3.20001,2.79999V94h8.5v-1.70001h-5.5L120.60004,90.79999z"/>
	<path d="M15.29999,30.29999c8.60004,0,15.10004-6.5,15.20001-15c0-0.39996,0-1-0.09998-1.29999h-16.5v4.79999h10
		c-1.30005,3.5-4.5,5.70001-8.5,5.70001c-5.20001,0-9.10004-3.90002-9.10004-9.40002c0-5.39996,3.90002-9.39996,9.10004-9.39996
		c4,0,7.19995,2.29999,8.39996,5.79999H30C28.5,4.70001,22.70001,0,15.40002,0C6.79999,0,0.20001,6.5,0.09998,15.20001
		C0.09998,23.79999,6.70001,30.29999,15.29999,30.29999z"/>
	<polygon points="54.79999,24 41.20001,24 41.20001,17.79999 53.90002,17.79999 53.90002,12.09998 41.20001,12.09998
		41.20001,6.20001 54.79999,6.20001 54.79999,0.5 35.20001,0.5 35.20001,29.70001 54.79999,29.70001 	"/>
	<polygon points="65.79999,17.40002 65.40002,9.70001 77.79999,29.70001 84.59998,29.70001 84.59998,0.5 78.59998,0.5
		78.59998,12.79999 79,20.5 66.59998,0.5 59.79999,0.5 59.79999,29.59998 65.79999,29.59998 	"/>
	<polygon points="96.79999,29.70001 102.79999,29.70001 102.79999,6.20001 111.10004,6.20001 111.10004,0.5 88.60004,0.5
		88.60004,6.20001 96.79999,6.20001 	"/>
	<polygon points="135.79999,11.90002 121.40002,11.90002 121.40002,6.20001 135.79999,6.20001 135.79999,0.5 115.40002,0.5
		115.40002,17.59998 129.79999,17.59998 129.79999,24 115.40002,24 115.40002,29.70001 135.79999,29.70001 	"/>
	<polygon points="161.60004,24 148,24 148,17.79999 160.70001,17.79999 160.70001,12.09998 148,12.09998 148,6.20001
		161.60004,6.20001 161.60004,0.5 142,0.5 142,29.70001 161.60004,29.70001 	"/>
	<polygon points="1.40002,63.59998 7.40002,63.59998 7.40002,51.90002 20.09998,51.90002 20.09998,46.20001 7.40002,46.20001
		7.40002,40.09998 21,40.09998 21,34.40002 1.40002,34.40002 	"/>
	<polygon points="45.79999,40.09998 45.79999,34.40002 26.20001,34.40002 26.20001,63.70001 45.79999,63.70001 45.79999,58
		32.20001,58 32.20001,51.70001 44.90002,51.70001 44.90002,46 32.20001,46 32.20001,40.09998 	"/>
	<polygon points="70.59998,40.09998 70.59998,34.40002 51,34.40002 51,63.70001 70.5,63.70001 70.5,58 56.90002,58
		56.90002,51.70001 69.59998,51.70001 69.59998,46 56.90002,46 56.90002,40.09998 	"/>
	<polygon points="96.09998,45.79999 81.70001,45.79999 81.70001,40.09998 96.09998,40.09998 96.09998,34.40002 75.70001,34.40002
		75.70001,51.5 90.09998,51.5 90.09998,57.90002 75.70001,57.90002 75.70001,63.59998 96.09998,63.59998 	"/>
	<polygon points="122.90002,34.40002 100.40002,34.40002 100.40002,40.09998 108.59998,40.09998 108.59998,63.59998
		114.59998,63.59998 114.59998,40.09998 122.90002,40.09998 	"/>
	<polygon points="127,63.70001 146.60004,63.70001 146.60004,58 133,58 133,51.70001 145.70001,51.70001 145.70001,46 133,46
		133,40.09998 146.60004,40.09998 146.60004,34.40002 127,34.40002 	"/>
	<polygon points="170.5,34.40002 170.5,46.70001 170.90002,54.40002 158.5,34.40002 151.70001,34.40002 151.70001,63.5
		157.70001,63.5 157.70001,51.29999 157.29999,43.59998 169.70001,63.59998 176.5,63.59998 176.5,34.40002 	"/>
</g>
</svg>
