<?xml version="1.0" encoding="utf-8"?>
<!-- Generator: Adobe Illustrator 26.5.0, SVG Export Plug-In . SVG Version: 6.00 Build 0)  -->
<svg version="1.1" id="Laag_1" xmlns="http://www.w3.org/2000/svg" xmlns:xlink="http://www.w3.org/1999/xlink" x="0px" y="0px"
	 viewBox="0 0 32 32" style="enable-background:new 0 0 32 32;" xml:space="preserve">
<style type="text/css">
	.st0{fill:#FFFFFF;}
</style>
<path class="st0" d="M31,24.1l0.9,1.8c0.2,0.5,0,1.1-0.5,1.3l-4.1,2.1c-1,0.5-2.2,0.1-2.7-0.9L20.7,20H12c-1,0-1.8-0.7-2-1.7
	C7.9,3.5,8,4.4,8,4c0-2.3,1.9-4.1,4.2-4c2.1,0.1,3.8,1.8,3.8,3.9c0.1,2.1-1.4,3.8-3.4,4.1l0.3,2H21c0.5,0,1,0.4,1,1v2
	c0,0.6-0.5,1-1,1h-7.6l0.3,2H22c0.8,0,1.5,0.4,1.8,1.1l3.6,7.7l2.3-1.1C30.2,23.4,30.8,23.6,31,24.1L31,24.1z M19.5,22h-1.5
	c-0.5,3.4-3.4,6-6.9,6c-3.9,0-7-3.1-7-7c0-2.6,1.4-4.9,3.5-6.1c-0.2-1.6-0.4-3-0.6-4.1C2.9,12.4,0,16.4,0,21c0,6.1,4.9,11,11,11
	c4.5,0,8.4-2.7,10.1-6.6L19.5,22L19.5,22z"/>
</svg>
